# xmcd
# 
# Track frame offsets:
#     150
#     15737
#     36175
#     55175
#     75475
#     90950
#     106725
#     126625
#     144075
#     163400
# 
# Disc length: 2422
# 
# Revision: 1
# Processed by: cddbd v1.5.2PL0 Copyright (c) Steve Scherf et al.
# Submitted via: fre:ac v1.0.31
# 
DISCID=7709740a
DTITLE=陳雷 - 歡喜就好／心愛的甭哭
DYEAR=1994
DGENRE=POP
TTITLE0=歡喜就好
TTITLE1=心愛的甭哭
TTITLE2=魂走九霄三千里
TTITLE3=我的稀微有啥關係
TTITLE4=越頭作你去
TTITLE5=癡情無伴
TTITLE6=不甘拆分開
TTITLE7=石頭仔情
TTITLE8=愛你祙著祝你幸福
TTITLE9=海海人生
EXTD=
EXTT0=
EXTT1=
EXTT2=
EXTT3=
EXTT4=
EXTT5=
EXTT6=
EXTT7=
EXTT8=
EXTT9=
PLAYORDER=
